<mxfile host="app.diagrams.net" modified="2020-04-26T09:43:54.369Z" agent="5.0 (Windows NT 10.0; WOW64) AppleWebKit/537.36 (KHTML, like Gecko) Chrome/76.0.3809.87 Safari/537.36" etag="rMyM-bmpcJa9Brr5AO-u" version="13.0.1" type="github">
  <diagram id="Zmf-0_7qtyzn1w2ZrcFC" name="第 1 页">
    <mxGraphModel dx="1422" dy="762" grid="1" gridSize="10" guides="1" tooltips="1" connect="1" arrows="1" fold="1" page="1" pageScale="1" pageWidth="827" pageHeight="1169" math="0" shadow="0">
      <root>
        <mxCell id="0" />
        <mxCell id="1" parent="0" />
        <mxCell id="dZBm2CB3RUhQM46AgE28-1" value="" style="rounded=0;whiteSpace=wrap;html=1;" parent="1" vertex="1">
          <mxGeometry x="820" y="70" width="680" height="380" as="geometry" />
        </mxCell>
        <mxCell id="dZBm2CB3RUhQM46AgE28-2" value="" style="edgeStyle=orthogonalEdgeStyle;rounded=0;orthogonalLoop=1;jettySize=auto;html=1;" parent="1" source="dZBm2CB3RUhQM46AgE28-3" target="dZBm2CB3RUhQM46AgE28-5" edge="1">
          <mxGeometry relative="1" as="geometry" />
        </mxCell>
        <mxCell id="dZBm2CB3RUhQM46AgE28-3" value="ClassLoader" style="rounded=0;whiteSpace=wrap;html=1;" parent="1" vertex="1">
          <mxGeometry x="290" y="110" width="140" height="60" as="geometry" />
        </mxCell>
        <mxCell id="dZBm2CB3RUhQM46AgE28-4" value="" style="edgeStyle=orthogonalEdgeStyle;rounded=0;orthogonalLoop=1;jettySize=auto;html=1;" parent="1" source="dZBm2CB3RUhQM46AgE28-5" target="dZBm2CB3RUhQM46AgE28-6" edge="1">
          <mxGeometry relative="1" as="geometry" />
        </mxCell>
        <mxCell id="dZBm2CB3RUhQM46AgE28-5" value="ExClassLoader" style="rounded=0;whiteSpace=wrap;html=1;" parent="1" vertex="1">
          <mxGeometry x="290" y="200" width="140" height="60" as="geometry" />
        </mxCell>
        <mxCell id="dZBm2CB3RUhQM46AgE28-6" value="ApplicationClassloader" style="rounded=0;whiteSpace=wrap;html=1;" parent="1" vertex="1">
          <mxGeometry x="290" y="290" width="140" height="60" as="geometry" />
        </mxCell>
        <mxCell id="dZBm2CB3RUhQM46AgE28-7" value="&lt;span style=&quot;font-size: 18px&quot;&gt;加载lib目录下&lt;/span&gt;" style="text;html=1;align=center;verticalAlign=middle;resizable=0;points=[];autosize=1;" parent="1" vertex="1">
          <mxGeometry x="470" y="130" width="120" height="20" as="geometry" />
        </mxCell>
        <mxCell id="dZBm2CB3RUhQM46AgE28-8" value="&lt;span style=&quot;font-size: 18px&quot;&gt;加载用户创建的类&lt;/span&gt;" style="text;html=1;align=center;verticalAlign=middle;resizable=0;points=[];autosize=1;" parent="1" vertex="1">
          <mxGeometry x="460" y="310" width="160" height="20" as="geometry" />
        </mxCell>
        <mxCell id="dZBm2CB3RUhQM46AgE28-9" value="Eden 区" style="rounded=0;whiteSpace=wrap;html=1;" parent="1" vertex="1">
          <mxGeometry x="827" y="110" width="120" height="60" as="geometry" />
        </mxCell>
        <mxCell id="dZBm2CB3RUhQM46AgE28-10" value="survivor 区" style="rounded=0;whiteSpace=wrap;html=1;" parent="1" vertex="1">
          <mxGeometry x="947" y="110" width="120" height="60" as="geometry" />
        </mxCell>
        <mxCell id="dZBm2CB3RUhQM46AgE28-11" value="" style="edgeStyle=orthogonalEdgeStyle;rounded=0;orthogonalLoop=1;jettySize=auto;html=1;" parent="1" source="dZBm2CB3RUhQM46AgE28-12" target="dZBm2CB3RUhQM46AgE28-14" edge="1">
          <mxGeometry relative="1" as="geometry" />
        </mxCell>
        <mxCell id="dZBm2CB3RUhQM46AgE28-12" value="survivor 区" style="rounded=0;whiteSpace=wrap;html=1;" parent="1" vertex="1">
          <mxGeometry x="1067" y="110" width="120" height="60" as="geometry" />
        </mxCell>
        <mxCell id="dZBm2CB3RUhQM46AgE28-13" value="" style="edgeStyle=orthogonalEdgeStyle;rounded=0;orthogonalLoop=1;jettySize=auto;html=1;" parent="1" source="dZBm2CB3RUhQM46AgE28-33" target="dZBm2CB3RUhQM46AgE28-15" edge="1">
          <mxGeometry relative="1" as="geometry" />
        </mxCell>
        <mxCell id="dZBm2CB3RUhQM46AgE28-14" value="老年代" style="rounded=0;whiteSpace=wrap;html=1;" parent="1" vertex="1">
          <mxGeometry x="1270" y="110" width="220" height="60" as="geometry" />
        </mxCell>
        <mxCell id="dZBm2CB3RUhQM46AgE28-15" value="metaspeace(元数据)" style="rounded=0;whiteSpace=wrap;html=1;" parent="1" vertex="1">
          <mxGeometry x="1300" y="320" width="160" height="60" as="geometry" />
        </mxCell>
        <mxCell id="dZBm2CB3RUhQM46AgE28-16" value="&lt;font style=&quot;font-size: 18px&quot;&gt;新生代&lt;/font&gt;" style="text;html=1;align=center;verticalAlign=middle;resizable=0;points=[];autosize=1;" parent="1" vertex="1">
          <mxGeometry x="947" y="90" width="70" height="20" as="geometry" />
        </mxCell>
        <mxCell id="dZBm2CB3RUhQM46AgE28-17" value="&lt;font style=&quot;font-size: 18px&quot;&gt;1 只有当Eden 区 进来的对象比较大&lt;br&gt;则直接进入老年代&lt;br&gt;2 正常GC 过程中也会进入老年代&lt;br&gt;&lt;br&gt;&lt;/font&gt;" style="text;html=1;align=center;verticalAlign=middle;resizable=0;points=[];autosize=1;" parent="1" vertex="1">
          <mxGeometry x="990" y="10" width="300" height="70" as="geometry" />
        </mxCell>
        <mxCell id="dZBm2CB3RUhQM46AgE28-18" value="&lt;font style=&quot;font-size: 18px&quot;&gt;1. 新生代中的对象什么时候会进入老年代&lt;br&gt;&lt;br&gt;正常GC&lt;br&gt;&lt;br&gt;产生大对象&lt;br&gt;&lt;br&gt;动态gc&lt;br&gt;&lt;/font&gt;" style="rounded=0;whiteSpace=wrap;html=1;align=left;verticalAlign=top;" parent="1" vertex="1">
          <mxGeometry x="660" y="70" width="160" height="290" as="geometry" />
        </mxCell>
        <mxCell id="dZBm2CB3RUhQM46AgE28-19" value="&lt;font style=&quot;font-size: 36px&quot;&gt;堆&lt;/font&gt;" style="text;html=1;align=center;verticalAlign=middle;resizable=0;points=[];autosize=1;" parent="1" vertex="1">
          <mxGeometry x="1450" y="410" width="50" height="30" as="geometry" />
        </mxCell>
        <mxCell id="dZBm2CB3RUhQM46AgE28-20" style="edgeStyle=orthogonalEdgeStyle;rounded=0;orthogonalLoop=1;jettySize=auto;html=1;" parent="1" source="dZBm2CB3RUhQM46AgE28-21" edge="1">
          <mxGeometry relative="1" as="geometry">
            <mxPoint x="1770" y="120" as="targetPoint" />
          </mxGeometry>
        </mxCell>
        <mxCell id="dZBm2CB3RUhQM46AgE28-21" value="第一次yongGC" style="rounded=0;whiteSpace=wrap;html=1;" parent="1" vertex="1">
          <mxGeometry x="1520" y="90" width="140" height="60" as="geometry" />
        </mxCell>
        <mxCell id="dZBm2CB3RUhQM46AgE28-22" value="" style="edgeStyle=orthogonalEdgeStyle;rounded=0;orthogonalLoop=1;jettySize=auto;html=1;" parent="1" source="dZBm2CB3RUhQM46AgE28-24" target="dZBm2CB3RUhQM46AgE28-25" edge="1">
          <mxGeometry relative="1" as="geometry" />
        </mxCell>
        <mxCell id="dZBm2CB3RUhQM46AgE28-23" style="edgeStyle=orthogonalEdgeStyle;rounded=0;orthogonalLoop=1;jettySize=auto;html=1;" parent="1" source="dZBm2CB3RUhQM46AgE28-24" edge="1">
          <mxGeometry relative="1" as="geometry">
            <mxPoint x="1770" y="260" as="targetPoint" />
          </mxGeometry>
        </mxCell>
        <mxCell id="dZBm2CB3RUhQM46AgE28-24" value="存活的会进入到From 区中" style="rounded=0;whiteSpace=wrap;html=1;" parent="1" vertex="1">
          <mxGeometry x="1700" y="150" width="140" height="60" as="geometry" />
        </mxCell>
        <mxCell id="dZBm2CB3RUhQM46AgE28-25" value="此时TO 区为空" style="rounded=0;whiteSpace=wrap;html=1;" parent="1" vertex="1">
          <mxGeometry x="1910" y="150" width="140" height="60" as="geometry" />
        </mxCell>
        <mxCell id="dZBm2CB3RUhQM46AgE28-26" style="edgeStyle=orthogonalEdgeStyle;rounded=0;orthogonalLoop=1;jettySize=auto;html=1;" parent="1" source="dZBm2CB3RUhQM46AgE28-27" target="dZBm2CB3RUhQM46AgE28-24" edge="1">
          <mxGeometry relative="1" as="geometry" />
        </mxCell>
        <mxCell id="dZBm2CB3RUhQM46AgE28-27" value="eden 区" style="rounded=0;whiteSpace=wrap;html=1;" parent="1" vertex="1">
          <mxGeometry x="1700" y="40" width="140" height="60" as="geometry" />
        </mxCell>
        <mxCell id="dZBm2CB3RUhQM46AgE28-28" style="edgeStyle=orthogonalEdgeStyle;rounded=0;orthogonalLoop=1;jettySize=auto;html=1;" parent="1" source="dZBm2CB3RUhQM46AgE28-29" edge="1">
          <mxGeometry relative="1" as="geometry">
            <mxPoint x="1770" y="230" as="targetPoint" />
          </mxGeometry>
        </mxCell>
        <mxCell id="dZBm2CB3RUhQM46AgE28-29" value="第二次GC 如果eden区&lt;br&gt;和From 区中都存活的对象会直接进入To 区中" style="rounded=0;whiteSpace=wrap;html=1;" parent="1" vertex="1">
          <mxGeometry x="1520" y="200" width="140" height="60" as="geometry" />
        </mxCell>
        <mxCell id="dZBm2CB3RUhQM46AgE28-30" value="此中的from 对象阈值 到达15则进入老年代" style="rounded=0;whiteSpace=wrap;html=1;" parent="1" vertex="1">
          <mxGeometry x="1700" y="260" width="140" height="70" as="geometry" />
        </mxCell>
        <mxCell id="dZBm2CB3RUhQM46AgE28-31" value="" style="strokeWidth=2;html=1;shape=mxgraph.flowchart.annotation_1;align=left;pointerEvents=1;rotation=-90;" parent="1" vertex="1">
          <mxGeometry x="993.5" y="63.5" width="27" height="250" as="geometry" />
        </mxCell>
        <mxCell id="dZBm2CB3RUhQM46AgE28-32" value="&lt;font style=&quot;font-size: 48px&quot;&gt;1/3&lt;/font&gt;" style="text;html=1;align=center;verticalAlign=middle;resizable=0;points=[];autosize=1;" parent="1" vertex="1">
          <mxGeometry x="960" y="210" width="80" height="30" as="geometry" />
        </mxCell>
        <mxCell id="dZBm2CB3RUhQM46AgE28-33" value="&lt;font style=&quot;font-size: 48px&quot;&gt;2/3&lt;/font&gt;" style="text;html=1;align=center;verticalAlign=middle;resizable=0;points=[];autosize=1;" parent="1" vertex="1">
          <mxGeometry x="1340" y="210" width="80" height="30" as="geometry" />
        </mxCell>
        <mxCell id="dZBm2CB3RUhQM46AgE28-34" value="" style="edgeStyle=orthogonalEdgeStyle;rounded=0;orthogonalLoop=1;jettySize=auto;html=1;" parent="1" source="dZBm2CB3RUhQM46AgE28-14" target="dZBm2CB3RUhQM46AgE28-33" edge="1">
          <mxGeometry relative="1" as="geometry">
            <mxPoint x="1380" y="170" as="sourcePoint" />
            <mxPoint x="1380" y="320" as="targetPoint" />
          </mxGeometry>
        </mxCell>
      </root>
    </mxGraphModel>
  </diagram>
</mxfile>
